<svg width="699" height="456" viewBox="0 0 699 456" fill="none" xmlns="http://www.w3.org/2000/svg">
<rect width="699" height="456" fill="#E5E5E5"/>
<g clip-path="url(#clip0)">
<rect width="699" height="456" fill="#B5FFDB"/>
<path d="M699 0.277466H217.612V313.739H699V0.277466Z" fill="#4A306D" fill-opacity="0.4"/>
<path d="M685.235 39.5934H231.377V295.195H685.235V39.5934Z" fill="#4A306D" fill-opacity="0.5"/>
<path d="M698.794 0H217.406V20.7934H698.794V0Z" fill="#4A306D"/>
<path d="M232.604 14.4846C234.697 14.4846 236.394 12.7591 236.394 10.6307C236.394 8.50223 234.697 6.77678 232.604 6.77678C230.51 6.77678 228.813 8.50223 228.813 10.6307C228.813 12.7591 230.51 14.4846 232.604 14.4846Z" fill="#B5FFDB"/>
<path d="M246.991 14.4846C249.085 14.4846 250.782 12.7591 250.782 10.6307C250.782 8.50223 249.085 6.77678 246.991 6.77678C244.898 6.77678 243.201 8.50223 243.201 10.6307C243.201 12.7591 244.898 14.4846 246.991 14.4846Z" fill="#B5FFDB"/>
<path d="M261.379 14.4846C263.473 14.4846 265.17 12.7591 265.17 10.6307C265.17 8.50223 263.473 6.77678 261.379 6.77678C259.286 6.77678 257.589 8.50223 257.589 10.6307C257.589 12.7591 259.286 14.4846 261.379 14.4846Z" fill="#B5FFDB"/>
<path d="M556.813 63.5337H409.052C408.737 63.4915 408.447 63.3341 408.237 63.0909C408.028 62.8477 407.912 62.5352 407.912 62.2117C407.912 61.8883 408.028 61.5758 408.237 61.3326C408.447 61.0894 408.737 60.932 409.052 60.8897H556.813C557.129 60.932 557.418 61.0894 557.628 61.3326C557.838 61.5758 557.954 61.8883 557.954 62.2117C557.954 62.5352 557.838 62.8477 557.628 63.0909C557.418 63.3341 557.129 63.4915 556.813 63.5337Z" fill="#130B0B"/>
<path d="M454.429 78.0759H360.482C360.167 78.0336 359.877 77.8762 359.668 77.633C359.458 77.3898 359.342 77.0773 359.342 76.7538C359.342 76.4304 359.458 76.1179 359.668 75.8747C359.877 75.6315 360.167 75.4741 360.482 75.4318H454.429C454.745 75.4741 455.034 75.6315 455.244 75.8747C455.454 76.1179 455.57 76.4304 455.57 76.7538C455.57 77.0773 455.454 77.3898 455.244 77.633C455.034 77.8762 454.745 78.0336 454.429 78.0759Z" fill="#B5FFDB"/>
<path d="M556.813 78.3403H462.866C462.551 78.298 462.261 78.1406 462.052 77.8974C461.842 77.6542 461.726 77.3417 461.726 77.0183C461.726 76.6948 461.842 76.3823 462.052 76.1391C462.261 75.8959 462.551 75.7385 462.866 75.6963H556.813C557.129 75.7385 557.418 75.8959 557.628 76.1391C557.838 76.3823 557.954 76.6948 557.954 77.0183C557.954 77.3417 557.838 77.6542 557.628 77.8974C557.418 78.1406 557.129 78.298 556.813 78.3403H556.813Z" fill="#B5FFDB"/>
<path d="M454.657 92.618H360.71C360.395 92.5757 360.105 92.4183 359.896 92.1751C359.686 91.9319 359.57 91.6195 359.57 91.296C359.57 90.9725 359.686 90.6601 359.896 90.4169C360.105 90.1736 360.395 90.0162 360.71 89.974H454.657C454.973 90.0162 455.262 90.1736 455.472 90.4169C455.682 90.6601 455.797 90.9725 455.797 91.296C455.797 91.6195 455.682 91.9319 455.472 92.1751C455.262 92.4183 454.973 92.5757 454.657 92.618Z" fill="#0FA3B1"/>
<path d="M454.885 107.16H360.938C360.623 107.118 360.333 106.96 360.124 106.717C359.914 106.474 359.798 106.162 359.798 105.838C359.798 105.515 359.914 105.202 360.124 104.959C360.333 104.716 360.623 104.558 360.938 104.516H454.885C455.201 104.558 455.49 104.716 455.7 104.959C455.91 105.202 456.026 105.515 456.026 105.838C456.026 106.162 455.91 106.474 455.7 106.717C455.49 106.96 455.201 107.118 454.885 107.16Z" fill="#B5FFDB"/>
<path d="M497.526 92.618H470.619C470.304 92.5757 470.014 92.4183 469.805 92.1751C469.595 91.9319 469.479 91.6195 469.479 91.296C469.479 90.9725 469.595 90.6601 469.805 90.4169C470.014 90.1736 470.304 90.0162 470.619 89.974H497.526C497.842 90.0162 498.131 90.1736 498.341 90.4169C498.551 90.6601 498.667 90.9725 498.667 91.296C498.667 91.6195 498.551 91.9319 498.341 92.1751C498.131 92.4183 497.842 92.5757 497.526 92.618Z" fill="#130B0B"/>
<path d="M497.526 106.896H470.619C470.304 106.853 470.014 106.696 469.805 106.453C469.595 106.21 469.479 105.897 469.479 105.574C469.479 105.25 469.595 104.938 469.805 104.695C470.014 104.451 470.304 104.294 470.619 104.252H497.526C497.842 104.294 498.131 104.451 498.341 104.695C498.551 104.938 498.667 105.25 498.667 105.574C498.667 105.897 498.551 106.21 498.341 106.453C498.131 106.696 497.842 106.853 497.526 106.896Z" fill="#B5FFDB"/>
<path d="M542.676 106.896H515.769C515.453 106.853 515.164 106.696 514.954 106.453C514.744 106.21 514.628 105.897 514.628 105.574C514.628 105.25 514.744 104.938 514.954 104.695C515.164 104.451 515.453 104.294 515.769 104.252H542.676C542.991 104.294 543.281 104.451 543.49 104.695C543.7 104.938 543.816 105.25 543.816 105.574C543.816 105.897 543.7 106.21 543.49 106.453C543.281 106.696 542.991 106.853 542.676 106.896Z" fill="#B5FFDB"/>
<path d="M386.705 63.5337H359.798C359.483 63.4915 359.193 63.3341 358.984 63.0909C358.774 62.8477 358.658 62.5352 358.658 62.2117C358.658 61.8883 358.774 61.5758 358.984 61.3326C359.193 61.0894 359.483 60.932 359.798 60.8897H386.705C387.021 60.932 387.31 61.0894 387.52 61.3326C387.73 61.5758 387.846 61.8883 387.846 62.2117C387.846 62.5352 387.73 62.8477 387.52 63.0909C387.31 63.3341 387.021 63.4915 386.705 63.5337Z" fill="#B5FFDB"/>
<path d="M454.087 230.272H360.14C359.825 230.23 359.535 230.072 359.326 229.829C359.116 229.586 359 229.273 359 228.95C359 228.626 359.116 228.314 359.326 228.071C359.535 227.828 359.825 227.67 360.14 227.628H454.088C454.403 227.67 454.692 227.828 454.902 228.071C455.112 228.314 455.228 228.626 455.228 228.95C455.228 229.273 455.112 229.586 454.902 229.829C454.692 230.072 454.403 230.23 454.088 230.272H454.087Z" fill="#B5FFDB"/>
<path d="M453.631 259.356H359.684C359.369 259.314 359.079 259.157 358.87 258.913C358.66 258.67 358.544 258.358 358.544 258.034C358.544 257.711 358.66 257.398 358.87 257.155C359.079 256.912 359.369 256.754 359.684 256.712H453.631C453.947 256.754 454.236 256.912 454.446 257.155C454.656 257.398 454.771 257.711 454.771 258.034C454.771 258.358 454.656 258.67 454.446 258.913C454.236 259.157 453.947 259.314 453.631 259.356H453.631Z" fill="#130B0B"/>
<path d="M453.859 273.898H359.912C359.597 273.856 359.307 273.699 359.098 273.455C358.888 273.212 358.772 272.9 358.772 272.576C358.772 272.253 358.888 271.94 359.098 271.697C359.307 271.454 359.597 271.297 359.912 271.254H453.859C454.175 271.297 454.464 271.454 454.674 271.697C454.884 271.94 454.999 272.253 454.999 272.576C454.999 272.9 454.884 273.212 454.674 273.455C454.464 273.699 454.175 273.856 453.859 273.898H453.859Z" fill="#B5FFDB"/>
<path d="M493.992 259.621H467.085C466.769 259.578 466.48 259.421 466.27 259.178C466.06 258.935 465.945 258.622 465.945 258.299C465.945 257.975 466.06 257.663 466.27 257.419C466.48 257.176 466.769 257.019 467.085 256.977H493.992C494.307 257.019 494.597 257.176 494.807 257.419C495.017 257.663 495.132 257.975 495.132 258.299C495.132 258.622 495.017 258.935 494.807 259.178C494.597 259.421 494.307 259.578 493.992 259.621Z" fill="#B5FFDB"/>
<path d="M493.992 273.898H467.085C466.769 273.856 466.48 273.699 466.27 273.455C466.06 273.212 465.945 272.9 465.945 272.576C465.945 272.253 466.06 271.94 466.27 271.697C466.48 271.454 466.769 271.297 467.085 271.254H493.992C494.307 271.297 494.597 271.454 494.807 271.697C495.017 271.94 495.132 272.253 495.132 272.576C495.132 272.9 495.017 273.212 494.807 273.455C494.597 273.699 494.307 273.856 493.992 273.898Z" fill="#130B0B"/>
<path d="M539.141 259.621H512.234C511.919 259.578 511.629 259.421 511.419 259.178C511.21 258.935 511.094 258.622 511.094 258.299C511.094 257.975 511.21 257.663 511.419 257.419C511.629 257.176 511.919 257.019 512.234 256.977H539.141C539.457 257.019 539.746 257.176 539.956 257.419C540.166 257.663 540.281 257.975 540.281 258.299C540.281 258.622 540.166 258.935 539.956 259.178C539.746 259.421 539.457 259.578 539.141 259.621Z" fill="#130B0B"/>
<path d="M556.927 244.814H409.166C408.851 244.772 408.561 244.614 408.351 244.371C408.142 244.128 408.026 243.816 408.026 243.492C408.026 243.169 408.142 242.856 408.351 242.613C408.561 242.37 408.851 242.212 409.166 242.17H556.927C557.243 242.212 557.532 242.37 557.742 242.613C557.952 242.856 558.068 243.169 558.068 243.492C558.068 243.816 557.952 244.128 557.742 244.371C557.532 244.614 557.243 244.772 556.927 244.814Z" fill="#0FA3B1"/>
<path d="M386.82 244.814H359.912C359.597 244.772 359.307 244.614 359.098 244.371C358.888 244.128 358.772 243.816 358.772 243.492C358.772 243.169 358.888 242.856 359.098 242.613C359.307 242.37 359.597 242.212 359.912 242.17H386.82C387.135 242.212 387.425 242.37 387.634 242.613C387.844 242.856 387.96 243.169 387.96 243.492C387.96 243.816 387.844 244.128 387.634 244.371C387.425 244.614 387.135 244.772 386.82 244.814Z" fill="#B5FFDB"/>
<path d="M431.399 130.65L394.914 167.282L431.399 203.913L439.608 195.567L412.016 167.513L439.836 139.229L431.399 130.65Z" fill="#E6E6E6"/>
<path d="M485.213 130.65L521.697 167.282L485.213 203.913L477.004 195.567L504.595 167.513L476.776 139.229L485.213 130.65Z" fill="#E6E6E6"/>
<path d="M431.399 130.65L394.914 167.282L431.399 203.913L439.608 195.567L412.016 167.513L439.836 139.229L431.399 130.65Z" fill="#B5FFDB"/>
<path d="M485.213 130.65L521.697 167.282L485.213 203.913L477.004 195.567L504.595 167.513L476.776 139.229L485.213 130.65Z" fill="#B5FFDB"/>
<path d="M370.494 437.074C381.846 452.531 405.411 454.158 405.411 454.158C405.411 454.158 410.57 430.724 399.218 415.266C387.866 399.809 364.301 398.182 364.301 398.182C364.301 398.182 359.142 421.616 370.494 437.074Z" fill="#0FA3B1" fill-opacity="0.6"/>
<path d="M428.324 442.885C420.833 453.085 405.284 454.158 405.284 454.158C405.284 454.158 401.879 438.694 409.37 428.494C416.861 418.294 432.411 417.221 432.411 417.221C432.411 417.221 435.815 432.685 428.324 442.885Z" fill="#0FA3B1"/>
<path d="M117.953 369.002V409.126H106.678L99.162 367.092L117.953 369.002Z" fill="#FFB9B9"/>
<path d="M28.6922 369.002V409.126H17.4177L9.90076 367.092L28.6922 369.002Z" fill="#FFB9B9"/>
<path d="M88.1729 73.2269C88.1729 73.2269 70.0546 59.9864 67.7898 66.3188C65.525 72.6512 81.3786 84.1647 81.3786 84.1647L88.1729 73.2269Z" fill="#FFB9B9"/>
<path d="M23.9095 90.2093C23.9095 113.101 33.603 113.812 49.3945 113.812C65.186 113.812 81.0955 113.101 81.0955 90.2093C81.0955 67.3179 68.294 48.7608 52.5025 48.7608C36.711 48.7608 23.9095 67.3179 23.9095 90.2093Z" fill="#2F2E41"/>
<path d="M62.694 89.9214C62.694 89.9214 60.4292 107.192 71.187 108.343C81.9448 109.494 36.0827 112.948 36.0827 112.948C36.0827 112.948 47.9729 102.011 41.7447 93.3755C35.5165 84.7404 62.694 89.9214 62.694 89.9214Z" fill="#FFB9B9"/>
<path d="M119.88 398.482L123.843 432.447C123.843 432.447 143.66 457.201 131.204 455.474C118.748 453.747 110.821 455.841 110.821 453.539C110.821 451.236 110.528 443.009 108.829 443.009C107.131 443.009 105.725 456 105.725 456C105.725 456 100.629 455.608 100.063 455.032C99.4969 454.457 98.9307 421.509 98.9307 421.509C98.9307 421.509 97.2321 411.723 100.629 407.118C104.026 402.512 103.46 398.482 103.46 398.482L119.88 398.482Z" fill="#2F2E41"/>
<path d="M29.6795 398.109L33.6429 432.074C33.6429 432.074 53.4598 456.828 41.0035 455.101C28.5471 453.374 20.6203 455.468 20.6203 453.165C20.6203 450.862 20.3274 442.635 18.6288 442.635C16.9302 442.635 15.5245 455.627 15.5245 455.627C15.5245 455.627 10.4287 455.235 9.86252 454.659C9.29632 454.083 8.73013 421.136 8.73013 421.136C8.73013 421.136 7.03154 411.349 10.4287 406.744C13.8259 402.139 13.2597 398.109 13.2597 398.109H29.6795Z" fill="#2F2E41"/>
<path d="M90.4377 196.421C90.4377 196.421 108.556 248.807 109.688 260.321C110.821 271.834 108.556 310.98 108.556 310.98C108.556 310.98 124.976 378.617 121.579 379.193C118.181 379.768 99.2629 382.497 98.6967 379.619C98.1305 376.741 96.1119 372.285 96.6781 370.557C97.2443 368.83 94.9795 362.498 94.9795 359.044C94.9795 355.59 87.0405 337.461 87.6067 334.583C88.1729 331.704 77.9813 289.104 76.2827 285.65C74.5841 282.196 70.0545 258.018 70.0545 258.018C70.0545 258.018 44.5756 328.826 44.0094 330.553C43.4432 332.28 41.1784 335.158 42.3108 335.734C43.4432 336.31 40.6122 340.339 40.6122 340.339C40.6122 340.339 34.7452 364.225 34.7452 365.376C34.7452 366.528 35.8776 379.56 33.6128 380.135C31.348 380.711 8.2142 380.674 7.0818 376.645C5.9494 372.615 19.0967 325.948 19.0967 325.948C19.0967 325.948 28.7221 296.588 25.8911 289.105C23.0601 281.621 28.722 236.718 30.9868 233.264C33.2516 229.81 33.8178 209.086 33.8178 209.086L90.4377 196.421Z" fill="#4A306D"/>
<path d="M52.7856 99.4201C62.7921 99.4201 70.9039 91.1724 70.9039 80.9985C70.9039 70.8246 62.7921 62.577 52.7856 62.577C42.7791 62.577 34.6672 70.8246 34.6672 80.9985C34.6672 91.1724 42.7791 99.4201 52.7856 99.4201Z" fill="#FFB9B9"/>
<path d="M62.694 104.313C62.694 104.313 42.3109 104.889 41.1785 103.162C40.0461 101.435 11.7362 107.192 11.7362 118.705C11.7362 130.219 28.1559 175.121 28.1559 175.121C28.1559 175.121 34.3841 207.359 32.6855 210.813C30.9869 214.267 95.5336 203.329 93.835 197.572C92.1364 191.816 82.511 179.151 94.9673 168.213C107.424 157.275 112.52 145.762 112.52 145.762L97.7983 106.04C97.7983 106.04 83.0772 103.738 79.68 106.04C76.2828 108.343 62.694 104.313 62.694 104.313Z" fill="#0FA3B1"/>
<path d="M108.556 148.64L112.519 145.762C112.519 145.762 149.322 106.616 139.697 99.1322C130.072 91.6485 115.917 84.7404 109.122 84.1647C102.328 83.589 96.6659 78.408 96.6659 78.408C96.6659 78.408 89.3053 65.1675 83.6434 73.8026C77.9814 82.4377 71.7532 85.316 79.68 88.1944C87.6067 91.0728 92.7025 89.9215 96.6659 92.7998C100.629 95.6782 115.917 100.284 109.122 102.011C105.226 102.971 101.433 104.321 97.7983 106.04L90.4377 119.281L108.556 148.64Z" fill="#0FA3B1"/>
<path d="M44.5757 245.929C44.5757 245.929 59.2968 267.805 48.5391 266.653C37.7813 265.502 32.6855 250.534 32.6855 250.534L44.5757 245.929Z" fill="#FFB9B9"/>
<path d="M15.6996 115.827L11.7362 118.705C11.7362 118.705 -1.2864 191.24 11.7362 210.237C24.7587 229.234 25.8911 228.083 25.8911 228.083C25.8911 228.083 28.1559 226.356 29.2883 237.87C30.4207 249.383 28.7221 253.988 32.1193 253.988C35.5165 253.988 50.8039 250.534 49.6715 247.656C48.5391 244.778 41.1785 228.083 40.6123 224.053C40.0461 220.024 37.2151 210.813 36.0827 205.632C34.9503 200.451 41.1785 197.572 38.3475 186.635C35.5165 175.697 31.5531 156.124 31.5531 152.094C31.5531 148.064 15.6996 115.827 15.6996 115.827Z" fill="#0FA3B1"/>
<path d="M35.2334 64.5918C35.2334 70.7916 43.5988 75.8174 53.9179 75.8174C64.2371 75.8174 73.7349 79.1388 73.7349 72.9391C73.7349 66.7393 64.2371 53.3662 53.9179 53.3662C43.5987 53.3662 35.2334 58.3921 35.2334 64.5918Z" fill="#2F2E41"/>
<path d="M80.9258 94.0945C80.9258 94.0945 81.6884 114.963 61.2919 113.812C40.8954 112.661 64.0483 95.9736 64.0483 95.9736L80.9258 94.0945Z" fill="#2F2E41"/>
<path d="M553.38 454.158H0V455.952H553.38V454.158Z" fill="#3F3D56"/>
</g>
<defs>
<clipPath id="clip0">
<rect width="699" height="456" fill="white"/>
</clipPath>
</defs>
</svg>
